<svg width="32" height="33" viewBox="0 0 32 33" fill="none" xmlns="http://www.w3.org/2000/svg">
<rect y="0.75" width="32" height="32" rx="8" fill="white"/>
<path d="M19.4931 18.3338C19.3635 19.058 19.0151 19.725 18.4948 20.2452C17.9745 20.7654 17.3073 21.1136 16.5831 21.2431C16.5556 21.2476 16.5278 21.2498 16.5 21.25C16.3746 21.25 16.2538 21.2028 16.1615 21.1179C16.0692 21.0329 16.0122 20.9164 16.0018 20.7914C15.9915 20.6664 16.0284 20.5421 16.1054 20.4431C16.1824 20.3441 16.2938 20.2776 16.4175 20.2569C17.4531 20.0825 18.3319 19.2038 18.5075 18.1663C18.5297 18.0355 18.603 17.9189 18.7112 17.8421C18.8193 17.7653 18.9536 17.7347 19.0844 17.7569C19.2152 17.7791 19.3318 17.8524 19.4085 17.9605C19.4853 18.0687 19.516 18.203 19.4937 18.3338H19.4931ZM21.5 17.75C21.5 19.2087 20.9205 20.6077 19.8891 21.6391C18.8576 22.6706 17.4587 23.25 16 23.25C14.5413 23.25 13.1424 22.6706 12.1109 21.6391C11.0795 20.6077 10.5 19.2087 10.5 17.75C10.5 16.005 11.1875 14.2206 12.5413 12.4469C12.5841 12.3907 12.6384 12.3443 12.7005 12.3106C12.7626 12.2769 12.8311 12.2568 12.9016 12.2516C12.972 12.2463 13.0428 12.256 13.1092 12.2801C13.1756 12.3042 13.2362 12.3421 13.2869 12.3913L14.7944 13.8544L16.1694 10.0788C16.1968 10.0035 16.242 9.93587 16.3011 9.88168C16.3602 9.82749 16.4314 9.7883 16.5088 9.76741C16.5862 9.74651 16.6674 9.74453 16.7457 9.76163C16.8241 9.77873 16.8971 9.8144 16.9587 9.86565C18.3256 11 21.5 14.0344 21.5 17.75ZM20.5 17.75C20.5 14.8694 18.2631 12.38 16.8619 11.1044L15.47 14.9213C15.4414 14.9997 15.3937 15.0697 15.3312 15.1249C15.2686 15.1801 15.1932 15.2188 15.1119 15.2374C15.0306 15.2561 14.9459 15.2541 14.8655 15.2316C14.7852 15.2091 14.7117 15.1669 14.6519 15.1088L13.0037 13.51C12.0056 14.9506 11.5 16.375 11.5 17.75C11.5 18.9435 11.9741 20.0881 12.818 20.932C13.6619 21.7759 14.8065 22.25 16 22.25C17.1935 22.25 18.3381 21.7759 19.182 20.932C20.0259 20.0881 20.5 18.9435 20.5 17.75Z" fill="#343C6A"/>
</svg>
