<svg width="32" height="33" viewBox="0 0 32 33" fill="none" xmlns="http://www.w3.org/2000/svg">
<rect y="0.25" width="32" height="32" rx="8" fill="white"/>
<path d="M23 13.25C23 12.587 22.7366 11.9511 22.2678 11.4822C21.7989 11.0134 21.1631 10.75 20.5 10.75H11C10.4259 10.7503 9.86947 10.9483 9.42409 11.3105C8.97872 11.6727 8.67158 12.1772 8.55428 12.7392C8.43697 13.3011 8.51665 13.8863 8.77992 14.3965C9.04319 14.9066 9.47401 15.3106 10 15.5406V20.75C10 21.0152 10.1054 21.2696 10.2929 21.4571C10.4804 21.6446 10.7348 21.75 11 21.75H20.5C20.7652 21.75 21.0196 21.6446 21.2071 21.4571C21.3947 21.2696 21.5 21.0152 21.5 20.75V15.5406C21.9455 15.3457 22.3245 15.0253 22.5909 14.6185C22.8572 14.2118 22.9994 13.7362 23 13.25ZM11 15.75C11.1326 15.75 11.2598 15.6973 11.3536 15.6036C11.4473 15.5098 11.5 15.3826 11.5 15.25C11.5 15.1174 11.4473 14.9902 11.3536 14.8964C11.2598 14.8027 11.1326 14.75 11 14.75C10.6022 14.75 10.2207 14.592 9.93935 14.3107C9.65805 14.0294 9.50001 13.6478 9.50001 13.25C9.50001 12.8522 9.65805 12.4706 9.93935 12.1893C10.2207 11.908 10.6022 11.75 11 11.75H17C17.3978 11.75 17.7794 11.908 18.0607 12.1893C18.342 12.4706 18.5 12.8522 18.5 13.25C18.5 13.6478 18.342 14.0294 18.0607 14.3107C17.7794 14.592 17.3978 14.75 17 14.75C16.8674 14.75 16.7402 14.8027 16.6465 14.8964C16.5527 14.9902 16.5 15.1174 16.5 15.25C16.5 15.3826 16.5527 15.5098 16.6465 15.6036C16.7402 15.6973 16.8674 15.75 17 15.75V20.75H11V15.75ZM20.5 14.75C20.3674 14.75 20.2402 14.8027 20.1465 14.8964C20.0527 14.9902 20 15.1174 20 15.25C20 15.3826 20.0527 15.5098 20.1465 15.6036C20.2402 15.6973 20.3674 15.75 20.5 15.75V20.75H18V15.5406C18.3456 15.3897 18.6526 15.1626 18.8979 14.8763C19.1433 14.59 19.3207 14.2518 19.4169 13.8872C19.5131 13.5226 19.5256 13.1409 19.4534 12.7708C19.3812 12.4007 19.2262 12.0517 19 11.75H20.5C20.8978 11.75 21.2794 11.908 21.5607 12.1893C21.842 12.4706 22 12.8522 22 13.25C22 13.6478 21.842 14.0294 21.5607 14.3107C21.2794 14.592 20.8978 14.75 20.5 14.75Z" fill="#343C6A"/>
</svg>
