<svg width="32" height="33" viewBox="0 0 32 33" fill="none" xmlns="http://www.w3.org/2000/svg">
<rect y="0.25" width="32" height="32" rx="8" fill="white"/>
<g clip-path="url(#clip0_1_1560)">
<path d="M18.875 11.2344C18.103 10.3428 17.2341 9.53989 16.2844 8.84061C16.2003 8.78171 16.1001 8.75012 15.9975 8.75012C15.8949 8.75012 15.7947 8.78171 15.7106 8.84061C14.7627 9.54018 13.8954 10.343 13.125 11.2344C11.4069 13.2075 10.5 15.2875 10.5 17.25C10.5 18.7087 11.0795 20.1076 12.1109 21.1391C13.1424 22.1705 14.5413 22.75 16 22.75C17.4587 22.75 18.8576 22.1705 19.8891 21.1391C20.9205 20.1076 21.5 18.7087 21.5 17.25C21.5 15.2875 20.5931 13.2075 18.875 11.2344ZM16 21.75C14.8069 21.7487 13.6631 21.2741 12.8195 20.4305C11.9759 19.5869 11.5013 18.4431 11.5 17.25C11.5 13.6731 14.9669 10.6875 16 9.87498C17.0331 10.6875 20.5 13.6719 20.5 17.25C20.4987 18.4431 20.0241 19.5869 19.1805 20.4305C18.3369 21.2741 17.1931 21.7487 16 21.75ZM19.4931 17.8337C19.3635 18.5579 19.0151 19.225 18.4948 19.7452C17.9745 20.2653 17.3073 20.6136 16.5831 20.7431C16.5556 20.7475 16.5278 20.7498 16.5 20.75C16.3746 20.7499 16.2538 20.7028 16.1615 20.6178C16.0692 20.5329 16.0122 20.4164 16.0018 20.2914C15.9915 20.1664 16.0284 20.0421 16.1054 19.943C16.1824 19.844 16.2938 19.7776 16.4175 19.7569C17.4531 19.5825 18.3319 18.7037 18.5075 17.6662C18.5297 17.5354 18.603 17.4188 18.7112 17.3421C18.8193 17.2653 18.9536 17.2346 19.0844 17.2569C19.2152 17.2791 19.3318 17.3523 19.4085 17.4605C19.4853 17.5687 19.516 17.7029 19.4937 17.8337H19.4931Z" fill="#343C6A"/>
</g>
<defs>
<clipPath id="clip0_1_1560">
<rect width="16" height="16" fill="white" transform="translate(8 8.25)"/>
</clipPath>
</defs>
</svg>
