<svg width="35" height="41" viewBox="0 0 35 41" fill="none" xmlns="http://www.w3.org/2000/svg">
<g clip-path="url(#clip0_1_1422)" filter="url(#filter0_d_1_1422)">
<path d="M21.84 6.74793C23.4969 6.74793 24.84 5.4048 24.84 3.74793C24.84 2.09105 23.4969 0.747925 21.84 0.747925C20.1831 0.747925 18.84 2.09105 18.84 3.74793C18.84 5.4048 20.1831 6.74793 21.84 6.74793ZM11.9456 20.5898L11.0206 22.7473H6.84C5.73563 22.7473 4.84 23.6429 4.84 24.7473C4.84 25.8517 5.73563 26.7473 6.84 26.7473H11.6806C12.8837 26.7473 13.9669 26.0323 14.4375 24.9292L14.9869 23.6467L14.32 23.2529C13.2375 22.6136 12.4413 21.6673 11.9456 20.5898ZM28.84 14.7473H26.0881L24.4594 11.4192C23.6781 9.82231 22.2437 8.65481 20.5981 8.23543L16.1556 6.91418C14.3869 6.48918 12.545 6.8798 11.1031 7.98543L8.62375 9.88606C7.74688 10.5579 7.58063 11.8129 8.25375 12.6898C8.92688 13.5667 10.1813 13.7311 11.0575 13.0598L13.5381 11.1592C14.0175 10.7911 14.6281 10.6592 15.1175 10.7754L16.0363 11.0486L13.695 16.5104C12.9062 18.3529 13.6131 20.5111 15.3387 21.5298L20.65 24.6654L18.9331 30.1486C18.6031 31.2023 19.19 32.3242 20.2438 32.6542C20.4431 32.7167 20.6444 32.7467 20.8425 32.7467C21.6931 32.7467 22.4819 32.1986 22.75 31.3436L24.7275 25.0273C25.0969 23.7292 24.5469 22.3348 23.375 21.6279L19.5475 19.3692L21.5044 14.4767L22.7712 17.0661C23.2712 18.0873 24.3288 18.7467 25.4656 18.7467H28.84C29.9444 18.7467 30.84 17.8511 30.84 16.7467C30.84 15.6423 29.9444 14.7473 28.84 14.7473Z" fill="#8A8C90"/>
</g>
<defs>
<filter id="filter0_d_1_1422" x="-3" y="0.747925" width="40" height="40" filterUnits="userSpaceOnUse" color-interpolation-filters="sRGB">
<feFlood flood-opacity="0" result="BackgroundImageFix"/>
<feColorMatrix in="SourceAlpha" type="matrix" values="0 0 0 0 0 0 0 0 0 0 0 0 0 0 0 0 0 0 127 0" result="hardAlpha"/>
<feOffset dy="4"/>
<feGaussianBlur stdDeviation="2"/>
<feComposite in2="hardAlpha" operator="out"/>
<feColorMatrix type="matrix" values="0 0 0 0 0 0 0 0 0 0 0 0 0 0 0 0 0 0 0.25 0"/>
<feBlend mode="normal" in2="BackgroundImageFix" result="effect1_dropShadow_1_1422"/>
<feBlend mode="normal" in="SourceGraphic" in2="effect1_dropShadow_1_1422" result="shape"/>
</filter>
<clipPath id="clip0_1_1422">
<rect width="32" height="32" fill="white" transform="translate(1 0.747925)"/>
</clipPath>
</defs>
</svg>
