<svg width="34" height="37" viewBox="0 0 34 37" fill="none" xmlns="http://www.w3.org/2000/svg">
<g clip-path="url(#clip0_1_1472)" filter="url(#filter0_d_1_1472)">
<path d="M5.23255 -0.174549C5.2602 -0.465311 5.3991 -0.734151 5.62025 -0.924943C5.8414 -1.11573 6.12769 -1.21373 6.41937 -1.19846C6.71104 -1.1832 6.98555 -1.05586 7.18557 -0.843026C7.3856 -0.630194 7.49568 -0.348324 7.49283 -0.0562637V7.48702C7.49283 7.74277 7.59443 7.98804 7.77527 8.16887C7.9561 8.34971 8.20137 8.45131 8.45712 8.45131C8.71286 8.45131 8.95813 8.34971 9.13897 8.16887C9.31981 7.98804 9.4214 7.74277 9.4214 7.48702V-0.225978C9.4214 -0.481722 9.523 -0.726992 9.70384 -0.907831C9.88468 -1.08867 10.1299 -1.19026 10.3857 -1.19026C10.6414 -1.19026 10.8867 -1.08867 11.0675 -0.907831C11.2484 -0.726992 11.35 -0.481722 11.35 -0.225978V7.48702C11.35 7.74277 11.4516 7.98804 11.6324 8.16887C11.8132 8.34971 12.0585 8.45131 12.3143 8.45131C12.57 8.45131 12.8153 8.34971 12.9961 8.16887C13.177 7.98804 13.2785 7.74277 13.2785 7.48702V-0.0562637C13.2819 -0.344475 13.3948 -0.620601 13.5945 -0.828518C13.7941 -1.03643 14.0654 -1.16054 14.3532 -1.1756C14.641 -1.19066 14.9238 -1.09556 15.144 -0.909612C15.3643 -0.723667 15.5054 -0.460838 15.5388 -0.174549C15.6365 0.753736 16.1714 5.97759 16.1714 8.45259C16.1714 10.1729 15.4193 11.7183 14.23 12.7777C13.8005 13.1583 13.6 13.5505 13.6 13.8796V14.8143L13.6013 14.8747C13.6553 15.6449 14.2428 24.2437 14.2428 25.8097C14.2428 26.3163 14.1431 26.8178 13.9492 27.2858C13.7554 27.7538 13.4713 28.179 13.1131 28.5371C12.7549 28.8953 12.3297 29.1794 11.8618 29.3733C11.3938 29.5671 10.8922 29.6669 10.3857 29.6669C9.87916 29.6669 9.3776 29.5671 8.90963 29.3733C8.44165 29.1794 8.01645 28.8953 7.65828 28.5371C7.30011 28.179 7.01599 27.7538 6.82215 27.2858C6.62832 26.8178 6.52855 26.3163 6.52855 25.8097C6.52855 24.2437 7.1174 15.6449 7.17012 14.8747L7.1714 14.8143V13.8796C7.1714 13.5517 6.97083 13.1596 6.5414 12.7777C5.93072 12.2348 5.44197 11.5686 5.10734 10.8231C4.77272 10.0777 4.5998 9.26974 4.59998 8.45259C4.59998 5.97759 5.13483 0.753736 5.23255 -0.174549ZM22.5421 14.2383L22.501 14.9532C22.4405 16.0036 22.3595 17.4217 22.2798 18.89C22.1204 21.8047 21.9571 24.9766 21.9571 25.8097C21.9571 26.3163 22.0569 26.8178 22.2507 27.2858C22.4446 27.7538 22.7287 28.179 23.0868 28.5371C23.445 28.8953 23.8702 29.1794 24.3382 29.3733C24.8062 29.5671 25.3077 29.6669 25.8143 29.6669C26.3208 29.6669 26.8224 29.5671 27.2903 29.3733C27.7583 29.1794 28.1835 28.8953 28.5417 28.5371C28.8998 28.179 29.184 27.7538 29.3778 27.2858C29.5716 26.8178 29.6714 26.3163 29.6714 25.8097C29.6714 24.8827 29.4683 21.3432 29.2934 18.2819L29.2883 18.197C29.1481 15.7555 29.0285 13.6597 29.0285 13.274V-0.225978C29.0285 -0.481722 28.927 -0.726992 28.7461 -0.907831C28.5653 -1.08867 28.32 -1.19026 28.0643 -1.19026H27.4214C25.1197 -1.19026 22.9123 -0.275917 21.2847 1.35163C19.6572 2.97918 18.7428 5.18661 18.7428 7.48831V11.9883C18.7428 13.2303 19.7508 14.2383 20.9928 14.2383H22.5421Z" fill="#3A53F6"/>
</g>
<defs>
<filter id="filter0_d_1_1472" x="-3" y="0" width="38" height="38" filterUnits="userSpaceOnUse" color-interpolation-filters="sRGB">
<feFlood flood-opacity="0" result="BackgroundImageFix"/>
<feColorMatrix in="SourceAlpha" type="matrix" values="0 0 0 0 0 0 0 0 0 0 0 0 0 0 0 0 0 0 127 0" result="hardAlpha"/>
<feOffset dy="4"/>
<feGaussianBlur stdDeviation="2"/>
<feComposite in2="hardAlpha" operator="out"/>
<feColorMatrix type="matrix" values="0 0 0 0 0 0 0 0 0 0 0 0 0 0 0 0 0 0 0.25 0"/>
<feBlend mode="normal" in2="BackgroundImageFix" result="effect1_dropShadow_1_1472"/>
<feBlend mode="normal" in="SourceGraphic" in2="effect1_dropShadow_1_1472" result="shape"/>
</filter>
<clipPath id="clip0_1_1472">
<rect width="30" height="30" fill="white" transform="translate(1)"/>
</clipPath>
</defs>
</svg>
