<svg width="32" height="33" viewBox="0 0 32 33" fill="none" xmlns="http://www.w3.org/2000/svg">
<rect y="0.75" width="32" height="32" rx="8" fill="white"/>
<g clip-path="url(#clip0_1_1551)">
<path d="M18.5 13.5C18.5 13.6484 18.456 13.7934 18.3736 13.9167C18.2912 14.04 18.174 14.1362 18.037 14.1929C17.8999 14.2497 17.7491 14.2645 17.6037 14.2356C17.4582 14.2067 17.3245 14.1352 17.2196 14.0303C17.1148 13.9255 17.0433 13.7918 17.0144 13.6463C16.9854 13.5009 17.0003 13.3501 17.0571 13.213C17.1138 13.076 17.21 12.9588 17.3333 12.8764C17.4566 12.794 17.6016 12.75 17.75 12.75C17.9489 12.75 18.1397 12.829 18.2803 12.9697C18.421 13.1103 18.5 13.3011 18.5 13.5ZM21.545 17.7275C20.3344 19.9088 18.08 21.0875 14.8425 21.2338L13.4675 24.4469C13.4288 24.5371 13.3645 24.614 13.2825 24.6679C13.2004 24.7218 13.1044 24.7503 13.0062 24.75H12.9744C12.8713 24.7436 12.7728 24.7054 12.6923 24.6407C12.6119 24.576 12.5534 24.488 12.525 24.3888L11.6 21.1494L8.36248 20.2225C8.26296 20.1946 8.17455 20.1365 8.10942 20.0562C8.04429 19.9759 8.00563 19.8774 7.99878 19.7743C7.99193 19.6712 8.01721 19.5684 8.07115 19.4802C8.12509 19.3921 8.20503 19.3228 8.29998 19.2819L11.5131 17.9069C11.66 14.6706 12.8387 12.4169 15.0187 11.2056C16.5656 10.3469 18.315 10.2156 19.5112 10.2569C20.6762 10.2969 21.7612 10.5238 21.94 10.6319C22.013 10.6749 22.0738 10.7358 22.1169 10.8088C22.2225 10.9869 22.45 12.0719 22.4919 13.2369C22.5344 14.4306 22.4037 16.1806 21.545 17.7275ZM18.0962 19.54C17.5185 19.3198 17.0154 18.9396 16.6457 18.444C16.2761 17.9484 16.0551 17.3578 16.0087 16.7413C15.3923 16.6949 14.8018 16.4741 14.3063 16.1045C13.8108 15.735 13.4308 15.232 13.2106 14.6544C12.7752 15.6456 12.5398 16.8454 12.5044 18.2538C12.5021 18.3497 12.4724 18.4429 12.4186 18.5224C12.3649 18.6018 12.2894 18.6641 12.2012 18.7019L9.98935 19.6481L12.1425 20.2644C12.2242 20.2878 12.2985 20.3317 12.3586 20.3918C12.4186 20.452 12.4623 20.5264 12.4856 20.6081L13.1006 22.7606L14.0481 20.5481C14.0859 20.4601 14.1483 20.3847 14.2277 20.3311C14.3072 20.2775 14.4004 20.2478 14.4962 20.2456C15.9033 20.2119 17.1033 19.9767 18.0962 19.54ZM21.2762 11.4731C20.3919 11.2856 17.27 10.7856 15.0075 12.395C14.633 12.6622 14.2966 12.9791 14.0075 13.3369C13.9838 13.6634 14.0316 13.9911 14.1477 14.2972C14.2637 14.6034 14.4451 14.8805 14.6793 15.1092C14.9135 15.338 15.1947 15.5129 15.5035 15.6217C15.8122 15.7306 16.141 15.7707 16.4669 15.7394C16.5403 15.7323 16.6143 15.7416 16.6837 15.7665C16.7531 15.7914 16.8162 15.8314 16.8683 15.8835C16.9205 15.9357 16.9604 15.9987 16.9854 16.0681C17.0103 16.1375 17.0195 16.2116 17.0125 16.285C16.9812 16.611 17.0215 16.9399 17.1305 17.2487C17.2395 17.5575 17.4146 17.8388 17.6435 18.0729C17.8725 18.307 18.1498 18.4884 18.4561 18.6042C18.7624 18.7201 19.0903 18.7677 19.4169 18.7438C19.7733 18.4546 20.0887 18.1182 20.3544 17.7438C21.9637 15.4831 21.4637 12.3588 21.2762 11.4731Z" fill="#343C6A"/>
</g>
<defs>
<clipPath id="clip0_1_1551">
<rect width="16" height="16" fill="white" transform="translate(8 8.75)"/>
</clipPath>
</defs>
</svg>
