<svg width="28" height="37" viewBox="0 0 28 37" fill="none" xmlns="http://www.w3.org/2000/svg">
<g clip-path="url(#clip0_1_1450)" filter="url(#filter0_d_1_1450)">
<path d="M14.1282 0.15332C9.76307 0.15332 6.93578 1.94177 4.71607 5.1313C4.31341 5.7099 4.43755 6.5032 4.99924 6.9291L7.35835 8.71787C7.92563 9.14799 8.73276 9.04742 9.17688 8.49103C10.5467 6.77488 11.5629 5.78679 13.7027 5.78679C15.3851 5.78679 17.466 6.86955 17.466 8.50099C17.466 9.7343 16.4479 10.3677 14.7867 11.299C12.8495 12.3851 10.286 13.7368 10.286 17.118V17.6533C10.286 18.3782 10.8736 18.9658 11.5985 18.9658H15.5618C16.2866 18.9658 16.8743 18.3782 16.8743 17.6533V17.3376C16.8743 14.9937 23.7248 14.8961 23.7248 8.55332C23.7249 3.7767 18.7701 0.15332 14.1282 0.15332ZM13.5802 20.5769C11.4913 20.5769 9.79189 22.2763 9.79189 24.3651C9.79189 26.4539 11.4913 28.1533 13.5802 28.1533C15.669 28.1533 17.3684 26.4539 17.3684 24.3651C17.3684 22.2762 15.669 20.5769 13.5802 20.5769Z" fill="#8A8C90"/>
</g>
<defs>
<filter id="filter0_d_1_1450" x="-4" y="0.15332" width="36" height="36" filterUnits="userSpaceOnUse" color-interpolation-filters="sRGB">
<feFlood flood-opacity="0" result="BackgroundImageFix"/>
<feColorMatrix in="SourceAlpha" type="matrix" values="0 0 0 0 0 0 0 0 0 0 0 0 0 0 0 0 0 0 127 0" result="hardAlpha"/>
<feOffset dy="4"/>
<feGaussianBlur stdDeviation="2"/>
<feComposite in2="hardAlpha" operator="out"/>
<feColorMatrix type="matrix" values="0 0 0 0 0 0 0 0 0 0 0 0 0 0 0 0 0 0 0.25 0"/>
<feBlend mode="normal" in2="BackgroundImageFix" result="effect1_dropShadow_1_1450"/>
<feBlend mode="normal" in="SourceGraphic" in2="effect1_dropShadow_1_1450" result="shape"/>
</filter>
<clipPath id="clip0_1_1450">
<rect width="28" height="28" fill="white" transform="translate(0 0.15332)"/>
</clipPath>
</defs>
</svg>
