<svg width="28" height="29" viewBox="0 0 28 29" fill="none" xmlns="http://www.w3.org/2000/svg">
<g clip-path="url(#clip0_1_1454)">
<path d="M25.4224 11.1971H24.8279C24.6348 10.5928 24.3912 10.0058 24.0993 9.44177L24.5203 9.02078C25.541 8.00113 25.5137 6.36707 24.5206 5.37504L23.2786 4.13309C22.2872 3.14034 20.6528 3.11158 19.6329 4.1327L19.2116 4.55402C18.6476 4.2622 18.0605 4.01852 17.4562 3.82541V3.23091C17.4562 1.80963 16.2999 0.65332 14.8786 0.65332H13.1213C11.7001 0.65332 10.5437 1.80963 10.5437 3.23091V3.82541C9.93951 4.01846 9.35244 4.26215 8.78844 4.55402L8.36751 4.13309C7.34962 3.11398 5.71528 3.13788 4.72183 4.13276L3.47971 5.37477C2.48702 6.36636 2.45831 8.00053 3.47938 9.02051L3.9007 9.44182C3.60883 10.0058 3.3652 10.5928 3.17209 11.1971H2.57764C1.15637 11.1971 0 12.3534 0 13.7747V15.532C0 16.9533 1.15637 18.1096 2.57764 18.1096H3.17209C3.3652 18.7139 3.60883 19.3009 3.9007 19.8649L3.47971 20.2859C2.45897 21.3055 2.48631 22.9396 3.47938 23.9316L4.72139 25.1736C5.71282 26.1663 7.34721 26.1951 8.36713 25.1739L8.78844 24.7526C9.35244 25.0444 9.93951 25.2881 10.5437 25.4812V26.0757C10.5437 27.497 11.7001 28.6533 13.1214 28.6533H14.8787C16.2999 28.6533 17.4563 27.497 17.4563 26.0757V25.4812C18.0605 25.2882 18.6476 25.0445 19.2116 24.7526L19.6325 25.1736C20.6504 26.1927 22.2847 26.1688 23.2782 25.1739L24.5203 23.9318C25.513 22.9402 25.5417 21.3061 24.5207 20.2861L24.0994 19.8648C24.3912 19.3008 24.6349 18.7138 24.828 18.1095H25.4224C26.8437 18.1095 28.0001 16.9531 28.0001 15.5319V13.7745C28 12.3534 26.8436 11.1971 25.4224 11.1971ZM14 20.7455C10.6407 20.7455 7.90781 18.0126 7.90781 14.6533C7.90781 11.2941 10.6407 8.56113 14 8.56113C17.3593 8.56113 20.0922 11.2941 20.0922 14.6533C20.0922 18.0126 17.3593 20.7455 14 20.7455Z" fill="#8A8C90"/>
</g>
<defs>
<clipPath id="clip0_1_1454">
<rect width="28" height="28" fill="white" transform="translate(0 0.65332)"/>
</clipPath>
</defs>
</svg>
