<svg width="20" height="21" viewBox="0 0 20 21" fill="none" xmlns="http://www.w3.org/2000/svg">
<path fill-rule="evenodd" clip-rule="evenodd" d="M13.1518 6.40706C13.3959 6.16298 13.7916 6.16298 14.0357 6.40706L17.3169 9.68831C17.561 9.93238 17.561 10.3281 17.3169 10.5722L14.0357 13.8534C13.7916 14.0975 13.3959 14.0975 13.1518 13.8534C12.9077 13.6094 12.9077 13.2136 13.1518 12.9696L15.9911 10.1302L13.1518 7.29094C12.9077 7.04686 12.9077 6.65113 13.1518 6.40706Z" fill="#8A8C90"/>
<path fill-rule="evenodd" clip-rule="evenodd" d="M7.5 10.1302C7.5 9.78507 7.77982 9.50525 8.125 9.50525H16.875C17.2202 9.50525 17.5 9.78507 17.5 10.1302C17.5 10.4754 17.2202 10.7552 16.875 10.7552H8.125C7.77982 10.7552 7.5 10.4754 7.5 10.1302Z" fill="#8A8C90"/>
<path fill-rule="evenodd" clip-rule="evenodd" d="M2.86612 2.99637C3.10054 2.76195 3.41848 2.63025 3.75 2.63025H8.125C8.47018 2.63025 8.75 2.91007 8.75 3.25525C8.75 3.60043 8.47018 3.88025 8.125 3.88025L3.75 3.88025L3.75 16.3802H8.125C8.47018 16.3802 8.75 16.6601 8.75 17.0052C8.75 17.3504 8.47018 17.6302 8.125 17.6302H3.75C3.41848 17.6302 3.10054 17.4986 2.86612 17.2641C2.6317 17.0297 2.5 16.7118 2.5 16.3802V3.88025C2.5 3.54873 2.6317 3.23079 2.86612 2.99637Z" fill="#8A8C90"/>
</svg>
