<svg width="32" height="32" viewBox="0 0 32 32" fill="none" xmlns="http://www.w3.org/2000/svg">
<rect width="32" height="32" rx="8" fill="white"/>
<path d="M22 16C22 16.1326 21.9473 16.2598 21.8536 16.3535C21.7598 16.4473 21.6326 16.5 21.5 16.5H14.5C14.3674 16.5 14.2402 16.4473 14.1465 16.3535C14.0527 16.2598 14 16.1326 14 16C14 15.8674 14.0527 15.7402 14.1465 15.6464C14.2402 15.5527 14.3674 15.5 14.5 15.5H21.5C21.6326 15.5 21.7598 15.5527 21.8536 15.6464C21.9473 15.7402 22 15.8674 22 16ZM14.5 12.5H21.5C21.6326 12.5 21.7598 12.4473 21.8536 12.3535C21.9473 12.2598 22 12.1326 22 12C22 11.8674 21.9473 11.7402 21.8536 11.6464C21.7598 11.5527 21.6326 11.5 21.5 11.5H14.5C14.3674 11.5 14.2402 11.5527 14.1465 11.6464C14.0527 11.7402 14 11.8674 14 12C14 12.1326 14.0527 12.2598 14.1465 12.3535C14.2402 12.4473 14.3674 12.5 14.5 12.5ZM21.5 19.5H14.5C14.3674 19.5 14.2402 19.5527 14.1465 19.6464C14.0527 19.7402 14 19.8674 14 20C14 20.1326 14.0527 20.2598 14.1465 20.3535C14.2402 20.4473 14.3674 20.5 14.5 20.5H21.5C21.6326 20.5 21.7598 20.4473 21.8536 20.3535C21.9473 20.2598 22 20.1326 22 20C22 19.8674 21.9473 19.7402 21.8536 19.6464C21.7598 19.5527 21.6326 19.5 21.5 19.5ZM10.7238 11.4475L11 11.3087V14.5C11 14.6326 11.0527 14.7598 11.1465 14.8535C11.2402 14.9473 11.3674 15 11.5 15C11.6326 15 11.7598 14.9473 11.8536 14.8535C11.9473 14.7598 12 14.6326 12 14.5V10.5C12.0001 10.4147 11.9783 10.3308 11.9368 10.2564C11.8954 10.1819 11.8355 10.1192 11.763 10.0744C11.6904 10.0295 11.6077 10.004 11.5225 10.0001C11.4373 9.99631 11.3525 10.0143 11.2763 10.0525L10.2763 10.5525C10.1576 10.6118 10.0673 10.7159 10.0254 10.8418C10.0046 10.9041 9.99631 10.9699 10.001 11.0355C10.0056 11.101 10.0231 11.165 10.0525 11.2237C10.0819 11.2825 10.1226 11.3349 10.1722 11.378C10.2219 11.421 10.2795 11.4539 10.3418 11.4746C10.4677 11.5166 10.6051 11.5068 10.7238 11.4475ZM12.9857 17.795C12.958 17.597 12.8906 17.4066 12.7875 17.2353C12.6844 17.0639 12.5477 16.9153 12.3857 16.7981C12.0611 16.5624 11.658 16.4614 11.2606 16.5162C10.8633 16.5709 10.5025 16.7772 10.2538 17.0919C10.1587 17.2139 10.0834 17.3502 10.0307 17.4956C10.0031 17.5582 9.98868 17.6258 9.98829 17.6942C9.9879 17.7626 10.0015 17.8303 10.0284 17.8932C10.0552 17.9562 10.0947 18.0129 10.1443 18.0599C10.194 18.107 10.2527 18.1434 10.317 18.1668C10.3812 18.1902 10.4496 18.2002 10.5179 18.1962C10.5862 18.1921 10.6529 18.1741 10.7139 18.1432C10.775 18.1124 10.829 18.0693 10.8727 18.0167C10.9165 17.9641 10.9489 17.9031 10.9682 17.8375C10.9857 17.7895 11.0105 17.7446 11.0419 17.7044C11.1301 17.5945 11.2573 17.5228 11.397 17.5043C11.5367 17.4858 11.6781 17.5219 11.7919 17.605C11.8466 17.6437 11.8929 17.6931 11.9279 17.7503C11.963 17.8075 11.986 17.8712 11.9957 17.9375C12.0045 18.0012 12.0003 18.0661 11.9835 18.1281C11.9666 18.1902 11.9374 18.2482 11.8975 18.2987C11.8957 18.3009 11.894 18.3032 11.8925 18.3056L10.0994 20.7006C10.0438 20.7749 10.0101 20.8633 10.0018 20.9557C9.99362 21.0482 10.0113 21.1411 10.0529 21.224C10.0944 21.307 10.1583 21.3767 10.2373 21.4255C10.3162 21.4742 10.4072 21.5 10.5 21.5H12.5C12.6326 21.5 12.7598 21.4473 12.8536 21.3535C12.9473 21.2598 13 21.1326 13 21C13 20.8674 12.9473 20.7402 12.8536 20.6464C12.7598 20.5527 12.6326 20.5 12.5 20.5H11.5L12.6925 18.9044C12.8134 18.7486 12.9017 18.5701 12.9521 18.3795C13.0024 18.1889 13.0139 17.9901 12.9857 17.795Z" fill="#343C6A"/>
</svg>
