<svg width="24" height="31" viewBox="0 0 24 31" fill="none" xmlns="http://www.w3.org/2000/svg">
<path d="M20.4875 3.88306H15.8C15.8 1.8147 14.1184 0.133057 12.05 0.133057C9.98164 0.133057 8.3 1.8147 8.3 3.88306H3.6125C2.05976 3.88306 0.799999 5.14282 0.799999 6.69556V27.3206C0.799999 28.8733 2.05976 30.1331 3.6125 30.1331H20.4875C22.0402 30.1331 23.3 28.8733 23.3 27.3206V6.69556C23.3 5.14282 22.0402 3.88306 20.4875 3.88306ZM6.425 24.9768C5.6457 24.9768 5.01875 24.3499 5.01875 23.5706C5.01875 22.7913 5.6457 22.1643 6.425 22.1643C7.2043 22.1643 7.83125 22.7913 7.83125 23.5706C7.83125 24.3499 7.2043 24.9768 6.425 24.9768ZM6.425 19.3518C5.6457 19.3518 5.01875 18.7249 5.01875 17.9456C5.01875 17.1663 5.6457 16.5393 6.425 16.5393C7.2043 16.5393 7.83125 17.1663 7.83125 17.9456C7.83125 18.7249 7.2043 19.3518 6.425 19.3518ZM6.425 13.7268C5.6457 13.7268 5.01875 13.0999 5.01875 12.3206C5.01875 11.5413 5.6457 10.9143 6.425 10.9143C7.2043 10.9143 7.83125 11.5413 7.83125 12.3206C7.83125 13.0999 7.2043 13.7268 6.425 13.7268ZM12.05 2.47681C12.8293 2.47681 13.4562 3.10376 13.4562 3.88306C13.4562 4.66235 12.8293 5.28931 12.05 5.28931C11.2707 5.28931 10.6437 4.66235 10.6437 3.88306C10.6437 3.10376 11.2707 2.47681 12.05 2.47681ZM19.55 24.0393C19.55 24.2971 19.3391 24.5081 19.0812 24.5081H10.6437C10.3859 24.5081 10.175 24.2971 10.175 24.0393V23.1018C10.175 22.844 10.3859 22.6331 10.6437 22.6331H19.0812C19.3391 22.6331 19.55 22.844 19.55 23.1018V24.0393ZM19.55 18.4143C19.55 18.6721 19.3391 18.8831 19.0812 18.8831H10.6437C10.3859 18.8831 10.175 18.6721 10.175 18.4143V17.4768C10.175 17.219 10.3859 17.0081 10.6437 17.0081H19.0812C19.3391 17.0081 19.55 17.219 19.55 17.4768V18.4143ZM19.55 12.7893C19.55 13.0471 19.3391 13.2581 19.0812 13.2581H10.6437C10.3859 13.2581 10.175 13.0471 10.175 12.7893V11.8518C10.175 11.594 10.3859 11.3831 10.6437 11.3831H19.0812C19.3391 11.3831 19.55 11.594 19.55 11.8518V12.7893Z" fill="#8A8C90"/>
</svg>
